{
  "accessors": [
    {
      "bufferView": 2,
      "componentType": 5126,
      "count": 22643,
      "max": [
        1.6394920349121094,
        1.8488810062408447,
        4.0914549827575684
      ],
      "min": [
        -1.6394920349121094,
        -1.8488810062408447,
        -4.0914549827575684
      ],
      "type": "VEC3"
    },
    {
      "bufferView": 2,
      "byteOffset": 271716,
      "componentType": 5126,
      "count": 22643,
      "max": [
        0.99999988079071045,
        0.999988853931427,
        0.99965590238571167
      ],
      "min": [
        -0.9999958872795105,
        -0.99996823072433472,
        -0.99990713596343994
      ],
      "type": "VEC3"
    },
    {
      "bufferView": 3,
      "componentType": 5126,
      "count": 22643,
      "max": [
        0.99929559230804443,
        0.99994349479675293,
        0.9999922513961792,
        1
      ],
      "min": [
        -0.99998927116394043,
        -0.99965476989746094,
        -0.99983084201812744,
        -1
      ],
      "type": "VEC4"
    },
    {
      "bufferView": 1,
      "componentType": 5126,
      "count": 22643,
      "max": [
        0.99939000606536865,
        0.99939000606536865
      ],
      "min": [
        0.00060999998822808266,
        0.00060999998822808266
      ],
      "type": "VEC2"
    },
    {
      "bufferView": 0,
      "componentType": 5125,
      "count": 110286,
      "max": [
        22642
      ],
      "min": [
        0
      ],
      "type": "SCALAR"
    }
  ],
  "asset": {
    "extras": {
      "author": "Spogna (https://sketchfab.com/spogna)",
      "license": "CC-BY-NC-4.0 (http://creativecommons.org/licenses/by-nc/4.0/)",
      "source": "https://sketchfab.com/3d-models/used-new-balance-574-classic-free-f0aad4f64925479da3f607b186314eef",
      "title": "Used New Balance 574 Classic   ▆ ▇ █ FREE █ ▇ ▆"
    },
    "generator": "Sketchfab-7.39.0",
    "version": "2.0"
  },
  "bufferViews": [
    {
      "buffer": 0,
      "byteLength": 441144,
      "byteOffset": 0,
      "name": "floatBufferViews",
      "target": 34963
    },
    {
      "buffer": 0,
      "byteLength": 181144,
      "byteOffset": 441144,
      "byteStride": 8,
      "name": "floatBufferViews",
      "target": 34962
    },
    {
      "buffer": 0,
      "byteLength": 543432,
      "byteOffset": 622288,
      "byteStride": 12,
      "name": "floatBufferViews",
      "target": 34962
    },
    {
      "buffer": 0,
      "byteLength": 362288,
      "byteOffset": 1165720,
      "byteStride": 16,
      "name": "floatBufferViews",
      "target": 34962
    }
  ],
  "buffers": [
    {
      "byteLength": 1528008,
      "uri": "scene.bin"
    }
  ],
  "extensionsRequired": [
    "KHR_materials_pbrSpecularGlossiness"
  ],
  "extensionsUsed": [
    "KHR_materials_pbrSpecularGlossiness"
  ],
  "images": [
    {
      "uri": "textures/material_0_diffuse.jpeg"
    },
    {
      "uri": "textures/material_0_specularGlossiness.png"
    },
    {
      "uri": "textures/material_0_normal.jpeg"
    },
    {
      "uri": "textures/material_0_occlusion.png"
    }
  ],
  "materials": [
    {
      "doubleSided": true,
      "extensions": {
        "KHR_materials_pbrSpecularGlossiness": {
          "diffuseFactor": [
            1,
            1,
            1,
            1
          ],
          "diffuseTexture": {
            "index": 0,
            "texCoord": 0
          },
          "glossinessFactor": 1,
          "specularFactor": [
            0,
            0,
            0
          ],
          "specularGlossinessTexture": {
            "index": 1,
            "texCoord": 0
          }
        }
      },
      "name": "material_0",
      "normalTexture": {
        "index": 2,
        "scale": 0.85975609760000005,
        "texCoord": 0
      },
      "occlusionTexture": {
        "index": 3,
        "strength": 0.84999999999999998,
        "texCoord": 0
      }
    }
  ],
  "meshes": [
    {
      "primitives": [
        {
          "attributes": {
            "NORMAL": 1,
            "POSITION": 0,
            "TANGENT": 2,
            "TEXCOORD_0": 3
          },
          "indices": 4,
          "material": 0,
          "mode": 4
        }
      ]
    }
  ],
  "nodes": [
    {
      "children": [
        1
      ],
      "name": "RootNode (gltf orientation matrix)",
      "rotation": [
        -0.70710678118654746,
        -0,
        -0,
        0.70710678118654757
      ]
    },
    {
      "children": [
        2
      ],
      "matrix": [
        1,
        0,
        0,
        0,
        0,
        0,
        -1,
        0,
        0,
        1,
        0,
        0,
        0,
        -3.4571000924188411e-06,
        -5.9600000668069697e-07,
        1
      ],
      "name": "RootNode (model correction matrix)"
    },
    {
      "children": [
        3
      ],
      "name": "nb574.obj.cleaner.materialmerger.gles"
    },
    {
      "mesh": 0,
      "name": ""
    }
  ],
  "samplers": [
    {
      "magFilter": 9729,
      "minFilter": 9987,
      "wrapS": 10497,
      "wrapT": 10497
    }
  ],
  "scene": 0,
  "scenes": [
    {
      "name": "OSG_Scene",
      "nodes": [
        0
      ]
    }
  ],
  "textures": [
    {
      "sampler": 0,
      "source": 0
    },
    {
      "sampler": 0,
      "source": 1
    },
    {
      "sampler": 0,
      "source": 2
    },
    {
      "sampler": 0,
      "source": 3
    }
  ]
}

